<svg xmlns="http://www.w3.org/2000/svg" width="3000" height="1925" viewBox="0 0 3000 1925">
  <defs>
    <style>
      .cls-1 {
        fill: #ff3737;
        fill-rule: evenodd;
      }
    </style>
  </defs>
  <path id="Fond_2" data-name="Fond 2" class="cls-1" d="M2689,324q1.995,13.5,4,27c10.77,1.076,22.29,5.269,32,8,17.33,4.875,34.73,7.424,51,12,10.53,2.962,25.9,2.034,34,8-13.68,8.886-26.59,19.371-40,29-3.11,2.23-6.59,7.41-10,9-13.7,6.387-48.4,3.642-65,0l-38-3c-31.33-8.8-63.51-21.25-95-30l-78-5c-14.5-4.509-28.84-13.229-42-19-33.76-14.808-55.67-30.121-84-49-9.63-6.416-19.66-11.2-29-18-7.2-5.242-11.74-14.681-18-21-15.38-15.526-31.71-28.183-42-49h2c4.39,6.29,19.41,16.285,26,21,1.93,1.38,7.36,4.947,8,4,6-8.818,5.73-24.187,9-35,5.11-16.866,8.87-36.736,13-54q-1.5-28-3-56c5.29-1.686,12.88-7.825,16-12,12.06,6.238,21.38,17.21,32,25,3.65,2.675,8.46,4.334,11,8,4.34,6.264,6.01,13.446,10,20,8.21,13.477,17.05,27.364,24,42,6.79,0.906,13.12,3.609,19,5,6.81,1.61,37.76-6.674,43-9,13.36-5.925,30.55-21.9,44-26,5.69-1.733,23.27,3.86,29,5v1c-7.6,8.239-16.25,32.878-22,44-1.52,2.944-6,11.731-5,13,1.54,5.422,13.92,24.925,19,26,13.53-10.459,44.7-3.686,65-8,23.93-5.084,60.29-5.274,84,0,9.15,2.036,18.95.211,27,2h13c16.33,3.636,36.71,1.374,53,5l25,1q13.005,3.5,26,7c5.48,1.656,14.26.637,17,5h-2c-3.74,2.794-8.29,2.947-13,5-16.47,7.175-33.76,13.508-51,21-20.42,8.875-41.77,16.809-63,26C2714.06,313.735,2701.66,321.948,2689,324ZM2407,803c19.44-.444,36.81,16.953,28,37-8.99,20.47-29.15,17.821-45,7-0.36,6.272-2.73,11.345-4,16-2.39,8.745,1.38,19.2-1,27-7.89,25.88-14.29,54.056-21,83v42c-3.54,15.97,1.27,26.25,5,41v18c10.41,31.73,24.69,64.96,51,81,7.14,4.35,16.95,1.64,26,5,4.22,1.57,4.35,4.58,11,5,3.67-3.33,9.25-3.65,14-6,11.7-5.8,41.55-21.5,48-31,11.2-16.49,12.44-41.12,20-61,2.87-7.55,9.73-12.39,13-19,3.25-6.57-.23-15.05,2-23,1.55-5.51,7.18-7.95,9-12,2.11-4.71.3-22.841,2-29,1.8-6.535,4.39-15.076,6-22V941c1.49-4.727,6.54-10.408,8-15V904a124.8,124.8,0,0,1,3-26c1.15-5.644-1.8-7.918-2-13-0.68-17.078-.09-33.568-3-47q0.495-37,1-74c1.62-7.509,4.09-20.668,2-30-4.52-20.157-15.57-43.367-2-64-6.79-.806-13.14-3.564-19-5h-24c-4.19-6.253-11.89-9.958-16-16-3.44-5.064-4.23-11.4-9-15-15.19-11.451-26.8-20.794-40-34-3.46-3.46-8.55-6.669-11-11-1.45-2.555-.03-5.544-1-9-1.76-6.265-6.07-13.013-8-19-1.73-5.368-2.57-36.307,0-41,2.23-4.07,15.96-16.582,22-17,7.25-4.6,22.42.425,31-3,15.2-6.064,43.16-2.428,59,1h93c11.72,2.765,20.38,7.806,35,8,5.47,8.111,13.12,12.185,21,18q5.505,6,11,12h5c3.94,1.982,8.23,7.208,13,9h5q4.005,4.5,8,9c8.18,8.173,16.79,15.859,25,24q5.505,6,11,12c5.43,3.94,20.53,13.463,23,19v33c-2.2,3.209-4,6.973-6,10,17.73,0.3,36.46,6.67,52,11l18,3c0.78,0.437,14.77,14.471,15,15v20c1.79,2.845-.54,8.22,1,12,0.61,1.508,4.32,6.079,5,8q-0.495,55.494-1,111c-0.07,9.589-7.69,15.013-4,26,7.63,22.688-.32,67.976-5,87v24c-3.67,13.531-6.33,31.142-10,46-2.61,10.55-1.84,19.38-5,29-2.56,7.78-6.77,17.76-9,26v19c-0.74,1.65-4.28,2.96-5,5v11c-1.67,1.33-3.33,2.67-5,4-1.17,2.42-1.53,7.33-2,9-4.14,14.75-4.7,26.6-9,41-1.12,3.76-4.73,7.6-6,11q-1.005,7.5-2,15c-2.1,3.8-8.09,5.73-10,10-0.33,3.33-.67,6.67-1,10-1.33,1-2.67,2-4,3q-1.995,7.005-4,14c-1.67,3.98-5.39,9.07-7,13-0.33,3.33-.67,6.67-1,10-2.43,5.77-10.97,9.31-13,15v13c-1.98,4.36-11.9,10.93-14,15v5c-2.86,5.56-13.37,12.89-16,19v7c-2.98,6.27-15.27,12.01-20,17-4.7,4.97-6.17,13.25-10,19q-14.505,15-29,30a207.869,207.869,0,0,1-20,17c-7.85,6.06-14.5,24.11-24,29-19.58,10.07-33.65,26.41-52,38-11.18,7.06-23.34,14.13-35,20-5.1,2.57-12.23,2.05-14,8,6.72,6.78,3.55,22.35-1,29-13.62,19.91-46.91,8.71-48-16-31.13,3.8-81.95,5.84-112-1h-25q-16.5-2.505-33-5c-7.32-2.06-15.64-5.93-22-8h-7c-8.77-2.6-17.72-8.83-26-12-5.16-1.98-8.81-1.45-13-4-17-10.34-32.93-22.43-49-34-5.52-3.98-11.01-12.03-17-15-2.45-1.22-5,.27-7-1-9.6-6.07-15.21-19.01-24-26-33.49-26.61-57.73-64.39-76-106-20.67-47.09-31-102.42-44-157-3.71-15.6,2.98-35.94,1-50-1.99-14.12-2.01-32.99-2-50q0.495-8,1-16c-1.82-9.832-3.58-37.9-1-49,2.74-11.8,6.32-23.748,9-35V865c1.18-4.655,3.41-11.252,6-15,1.24-1.79,5.15-4.065,6-6,2.62-5.983.08-18.655,2-25l9-24c1.11-2.131,4.26-4.858,5-7,3.23-9.407-1.59-9.331,4-18h-6c-7.46-4.447-21.17-1.756-30-4l-51-12c-0.15,31.045-5.15,55.679,1,84v28c0,21.464-.2,44.637,4,64q-0.495,39.5-1,79c2.43,11.15.31,24.23,3,36,1.6,7.03,3.89,13.86,4,22,0.39,28.24-2.35,61.46,3,86v32c0.56,2.29,2.39,7.44,3,10,2.22,9.3-.91,24.03,4,31v-2c9.05-6.08,12.28-10.11,29-10,6.68,5.72,14.67,7.88,18,17,6.71,18.36-11.51,40.89-32,35-6.35-1.82-10.21-6.71-15-10v14c4.12,5.89,3.99,17.43,4,27,0.02,33.92-5.3,44.4-22,61-11.71,11.64-39.33,12.88-58,17h-38c-19.69,4.57-42.06,9.37-61,14h-48c-2.67-.33-5.33-0.67-8-1-4.86,1.14-12.46,3.73-18,5-16.84,3.86-39.42,1-58,1h-28c-15.56,3.63-29.81,9.85-49,10-10.78.08-29.65,2.56-37-2-2.62-.89-16.06-12.89-17-15v-43c3.03-4.49,2.75-10.65,5-16,5.14-12.21,11.61-24.32,17-37h-1c-5.68,8.35-14.98,13-22,20-32.09,32.03-67.92,54.35-114,73l-31,6c-2.2.88-4.79,3.84-7,5-8.48,4.46-18.29,8.41-27,12-31.07,12.81-69.74,14.99-113,15-30.43.01-62.09,1.85-88-4-18.26-4.12-39.31,3.45-55-3-3.41-1.4-6.08-5.94-9-8a170.251,170.251,0,0,0-19-11c-30.34-15.83-67.62-25.45-86-53-4.04-6.06.1-19.17-4-26-7.66,6.98-22.88,5.26-32,11-26.767,16.84-46.046,38.26-82,47H891c-7.355-9.81-21.295-15.6-28-26-5.928-9.19.009-25.29-5-36-0.88-1.88-4.8-4.07-6-6-5.829-9.37-8.041-23.28-11-35q-3.5-24.99-7-50c-2.917-10.43-8.426-20.27-11-30-3.536-13.36,1.372-32.56-6-42-9.9-9.54-18.5-6.06-31-3H753c-12.7,3.23-24.4,10.7-36,14-11.417,3.25-33.654-1.09-42,0v29c-1.38,4.89-5.64,9.88-7,15-2.5,9.43,3.826,30.11,1,42-4.092,17.22-9.814,35.55-14,51q-0.5,10.5-1,21c-1.021,4.11-1.326,11.11-3,16-1.731,5.06-6.87,10.61-9,16q-0.5,6-1,12c-0.408.88-15.95,16.43-17,17-11.94,6.45-38.309-3.83-51,0-0.824.25-3.176,2.75-4,3H538l-2-3H514c-7.551-1.67-17.8-2.39-25-4H472a40.974,40.974,0,0,1-13-2q-13-.495-26-1c-10.605-2.77-27.175-10.7-36-8H365c-16.578-5.34-49.956-18.38-55-34v-40c1.278-5.02,4.482-10.32,6-15l1-10c0.582-1.31,3.373-3.09,4-5,1.732-5.27-.217-14.98,2-20l4-3,1-13c0.442-1.67,2.6-5.5,3-7v-13c4.408-15.89,12-33.33,17-50,1.9-6.33-.24-12.03,2-19,0.271-.84,2.735-3.16,3-4v-15c1.38-3.15,5.831-5.87,7-10v-16c6.933-15.72,15.473-32.01,22-48,2.079-5.09.691-12.87,3-18,0.934-2.07,4.017-3.93,5-7q2.5-14,5-28c2.378-8.441,6.667-17.525,9-25,3.084-9.882-.52-21.141,3-30,4.949-12.455,10.611-31.088,17-43,3.009-5.609,8.686-8.009,11-15,2.275-6.874,3.46-14.748,5-21V833c1.291-3.223,5.494-7.542,7-11,4.056-9.315,5.048-18.367,9-28,3.13-7.629,8.378-16.5,11-24q2.5-19,5-38c2.014-6.448,7.166-13.393,9-20V697c1.875-4.691,6.85-11.053,9-16,7.592-17.464,14.078-36.058,20-54,2.952-8.943,4.895-18.217,7-27V590l4-3c1.955-4.49-.553-11.072,1-15,10.311-26.082,27.432-51.534,31-84h-1v2c-4.506,4.632-7.478,10.357-14,13-19.9,8.067-35.4-8.661-46-14-12.937-6.518-30.039-15.939-20-38,4.067-8.939,12.532-9.454,20-15-8.984-5.648-19.95-9.3-29-15-4.218-2.655-9.137-8.332-14-10l-51-2c-5.748-8.4-15.036-9.474-15-24-5.318-6.588-3.153-25.569-3-37,5.441-3.634,9.43-12.278,15-15,2.456-1.2,6.509.962,8-1V319c1.635-4.434,13.2-17.908,17-20l21-4c40.058-11.769,98.048-2.577,134,6,13.208,3.151,19.394.3,28-3,6.632-2.541,28.981.613,33,2h37c21.143,5.025,35.566,13.844,52,23l10,11c15.811,11.8,27.28,18.941,40,34,2.05,2.427,3.832.354,7,2,2.9,1.508,16.663,16.805,18,20v28c20.362-.128,34.757,2.861,53,3,1.354,1.959,20.539,21.264,22,22,3.889-5.8,9.932-10.447,14-16,14.082-19.223,27.788-40.089,47-54,24.463-17.712,55.7-27.039,82-43,10.05-6.1,21.56-10.658,32-17,2.86-1.74,6.83-5.858,10-7l20-2c7.27-2.168,16.99-4.963,25-7l17-2c6.6-1.972,13.59-6.187,20-8l29-1c5.76-1.457,9.79-6.193,14-8,10.11-4.343,47.55,3.346,55,5,11.92,2.646,23.68.126,33-2,9.68-2.207,26.84-.567,35,1l8-1h33c8.16,10.579,21.15,15.958,32,24,18.1,13.421,33.77,40.152,47,59,6.64,9.457,17.64,19.853,21,32v35c-1.85,1.11-7.59,5.975-6,7,7.4,5.435,29.99,8.516,40,11h21c1.68,0.672,4.41,4.03,6,5,5.51,3.354,12.37,5.28,18,8-2.66-7.794-.91-16.846-3-26-1.72-7.57-6.5-30.845-3-42,2.2-7.03,9.57-9.359,12-16h-15c-7.32-10.947-21.55-14.228-32-22q-7.995-8.5-16-17-9.495-9-19-18c-3.47-4.631-6.41-11.6-11-15-9.28-6.875-20.59-13.526-27-23-2.78-4.1-3.17-9.081-6-13q-7.005-6.5-14-13V216c5.24-3.55,9.56-12.573,15-15h32c12.31,8.432,34.62.031,52,4,15.06,3.438,37.15,13.019,59,8,11.82-2.715,43.8-7.614,60-4,7.31,1.63,15.32,4.26,21,6h30c18.1,0.373,40.44.391,58,3,9.67,1.437,24.75-3.791,36-1,25.66,6.365,59.62,6.741,85,13h20c5.98,1.868,13.64,5.264,21,7l23,2c5.92,1.476,12.73,4.567,18,6h15c2.1,0.864,4.11,5.162,6,6h29c15.99,3.98,37.29,5.061,55,9,18.49,4.112,40.87-3.877,58,1a212.392,212.392,0,0,1,53,24c4.45,2.8,9.4,8.839,14,11l10,1,21,22c8.12,8.121,19.25,21.481,28,28,6.42,4.786,12.68,6.706,20,11,13.17,7.73,29.62,40.237,21,66h7c6.09,3.779,15.83,2.687,23,5,18.24,5.885,37.62,11.332,47,26,5.03,7.87-.54,19.4,3,30,1.85,5.538,2.12,15.513,2,24h1c4.53-2.885,28.43-1.114,36-1,6.02,7.571,18.28,12.449,23,21v4l9,8v32a19.916,19.916,0,0,0-6,6c6.58,0.151,15.7.6,21,3,3.91,1.771,25.44,20.482,27,24v48q-2.505,9-5,18c-3.39,8.92-8.62,18.894-12,28q-3,14-6,28c-3.35,10.167-7.99,23.056-11,34v13A70.446,70.446,0,0,0,2407,803ZM1634,536v16h1v-2c2.57-2.05,4.35-6.13,6-9C1637.53,539.833,1636.69,537.81,1634,536Zm-585,12c-1.34,2.151-2.75,3.583-4,6h2a17.885,17.885,0,0,1,3-4C1049.37,548.246,1049.81,549.029,1049,548Zm-92,81c0.919,7.868,6,8.677,8,14,2.318,6.173-.317,14.117,3,19v-1c8.127-8.607,18.823-27.53,22-41h-1C982.909,629.668,973.283,629.388,957,629ZM699,660c-0.22,13.654-1,29.872-1,45,0,10.6,1.022,24.093-1,33q-0.5,10-1,20c-2.145,8.59-5.91,16.787-8,25v12a93.538,93.538,0,0,0-3,23v20c-1.507,3.816-5.472,9.341-7,14-2.913,8.878-11.314,42.655-2,47,2.634,2.076,7.656,2.758,12,3,6.326-10.019,17.2-9.384,34-9,4.623-2.79,13.773.35,20-1,6.852-1.485,25.676,1.734,32-1l3-4c3.432-1.488,8.418.621,11-1-17.25-11.967-20.4-35.121-29-56-3.414-8.29-7.238-18.45-12-26-1.84-2.918-6.555-6.126-8-9q-2.5-19.5-5-39c-3.387-11.986-11.541-21.639-15-32-2.911-8.72-5.021-17.071-7-25-3.538-14.175,5.464-34.211-8-38C702.705,660.123,701.533,660.106,699,660Zm887,28c-2.85,5.874-9.67,9.548-12,15-1.99,4.65-.32,8.915-2,13-6.92,16.833-14.99,34.914-22,52q-3.495,12-7,24-4.995,4.5-10,9c-1.67,2-3.33,4-5,6h-38l-15-8c-5.57-3.913-10.9-10.892-17-14-10.05-5.121-26.38-4.755-38-8-27.79-7.758-48.38-13.027-78-5l-17,3c-10.55,4.252-16.61,17.961-27,23l-8,1c-6.41,2.659-15.98,8.677-20,14-8.18,10.849-17.5,22.966-23,36-2.22,5.271-.37,11.127-3,17-1.33,1-2.67,2-4,3v10a120.7,120.7,0,0,1-5,17c-1.66,4.046-5.7,9.064-7,13v8q-3,12.5-6,25c-2.39,7.311-7.53,16.487-9,24l6,32c2.33,5.9,10.59,8.98,14,14,7.08,10.41,10.37,27.47,21,34,3.74,2.3,10.29-.88,15,1,1.76,0.7,4.13,4.04,6,5,5.97,3.07,15.03,4.69,22,6,9.08,1.71,24.32-2.96,32-5,26.54-7.03,53.26-10.07,74-23,20.95-13.07,34.25-36.644,58-47,12.93-5.638,31.04-4.949,50-5,4.34,6.478,13.25,10.331,16,18h1V958c4.38-7.358,1.81-19.964,4-29,5.34-22.088,3.8-30.884,18-45,1.67-2,3.33-4,5-6h34c1.29,0.877,2.47.894,5,1,4.35,6.791,12.25,10.721,17,17,8.38,11.085,16.7,23.06,24,35,4.24,6.941,8.02,15.721,11,23,0.33,2.333.67,4.667,1,7,1.63,3.109,6.88,5.989,9,9,8.32,11.786,15.54,24.731,23,37,4.72,7.76,5.57,18.56,11,26,1.41-22.02,13.53-46.112,18-67,1.62-7.549-4.52-16.874-6-23q0.495-32,1-64c0.35-1.592-.01-8.444,1-11,0.46-1.175,3.53-3.532,4-5V834c3.73-15.084,9.18-31.793,13-46V762c2.15-8.657,4.97-18.256,7-28-9.93-6.649-14.59-20.09-27-24-7.66-2.413-18.51,1.664-24,3-14.84,3.61-29.29,4-47,4-6.42,0-18.55,1.71-23-1-8.18-2.858-14.08-13.361-20-19C1587.12,693.72,1587.24,689.816,1586,688ZM333,701c39.512-1.349,42.633,43.854,13,52-20.36,5.6-39.041-16.575-32-35C317.654,708.439,325.374,706.613,333,701Zm1971,65V756h-1l-9,10h10ZM313,997c36.911-1.257,41.324,42.87,13,52-17.669,5.7-39.89-11.68-34-32,2.925-10.09,10.233-12.91,17-19C311.328,997.805,311.826,997.807,313,997Zm-61,78c36.244-1.19,40.847,42.57,13,52-20.209,6.84-40.271-13.26-34-33,3.149-9.91,10.234-11.93,17-18C250.328,1075.8,250.826,1075.81,252,1075Zm1414,64c-8.65,13.48-18.8,16.36-42,16v2c10.08,9.55,18.97,22.64,23,38h1v-22C1652.2,1168.71,1670.1,1146.3,1666,1139Zm-12,81v8h1v-2a6.165,6.165,0,0,0,2-2C1655.85,1222.83,1655.16,1221.16,1654,1220Zm-496,27c-2.43,4.21-2.8,4.43,3,5v-1C1159.79,1249.59,1159.48,1248.21,1158,1247Zm-348,87c37.52-.94,39.247,45.28,8,53-16.686,4.13-35.388-15.49-30-34C791.488,1341.02,800.42,1340.02,810,1334ZM105,1442h32c16.09,5.29,35.424,24.59,49,34,3.222,2.23,5.924.94,10,3l17,18c6.732,4.9,14.236,5.58,22,10q3.5,4.005,7,8c8.927,8.92,19.119,17.08,26,28,2.773,4.4,3.633,10.14,7,14,3.168,3.63,15.832,4.49,21,7l17,18c5.737,12.15,7.445,32.3,11,46l1,13c1,0.67,2,1.33,3,2v11c0.021,14.14-2.333,26.86,4,35v-3c-3.346-4.75-2-16.2-2-24,0-6.62.648-10.06,2-14v-42c9.157-5.97,13.2-16.4,25-20,10.086-3.07,23.723,1.67,35-1,15.452-3.66,34.054-4.16,50-9,5.571-1.69,11.438-6.19,16-8,7.726-3.06,33.395.76,39,2,9.406,2.07,24.753-2.21,32-4q24.5,0.495,49,1a323.534,323.534,0,0,1,71-8q29-.495,58-1c4.11-1.33,8.521-5.74,13-7,11.422-3.21,27.586,1.31,38-1h23c26.116,0,53.628,3.83,74-1,12.215-2.9,28.416,2.69,39,1,4.4-.7,9.657-3.94,13-5,11.388-3.62,27.013,3.08,37,1,1.984-.41,6.35-2.56,8-3h33c7.078-1.86,24.95-4.62,35-2,3.67,0.96,9.3,4.14,15,3,23.36-4.69,50.5-6,77-6,11.72,0,27.55,4.11,37,2,11.51-2.58,24.95-5.26,35-8,11.6-3.16,31.61.62,43-2h38c4.76,1.1,13.66,4.27,20,3,8.69-1.74,19.45.09,29-2,22.66-4.97,53.28-4.26,78-2,5.6,0.51,10.65-.76,15-1,22.5-1.26,48.68-1.07,67,3,14.56,3.24,31.49-2,47-2,20.09,0,39.64.85,57-3h17c17.21,0,33.99,1.39,49,2,2.75,0.11,12.55-2.23,16-3,14.57-3.24,32.59.77,45-2h16c19.48,0,35.9,3,54,2,11.68-.65,39.59-5.53,53-2,5.89,1.55,15.28,5.87,24,4q22.005-2.505,44-5h85a85.3,85.3,0,0,0,42-2c10.79-3.32,41.14,1.29,49,3q22.995-1.995,46-4c15.25-3.37,43.32.39,55,3,3.62,0.81,8.94-.54,11-1q26.49-.495,53-1c12.1,2.68,28.78,8.51,45,5,13.79-2.98,35.1-.77,49,0q27.495-.495,55-1,25.5,1.005,51,2,30.99-.495,62-1c2.18,0.67,6.33,3.35,9,4,6.96,1.68,23.52-3,34-3,30.14,0,62.85,1.44,90,2h27c0.67-1,1.33-2,2-3q21,0.495,42,1h30c14.51,3.61,29.16,9.45,47,10,3.2,4.72,13.12,10.79,15,15v28c4.99,3.75,3.02,17.56,3,26-0.02,9-2.29,13.4-4,19v29a38.575,38.575,0,0,0-2,12c-16.18,11.13-8.22,21.33-39,21-9.73,6.8-25.21,3.01-39,6-8.35,1.81-20.99,1-31,1-26.37,0-49.99-.25-73-4-5-.81-18.68,0-27,0-16.04,0-30.4-2-44,1h-21c-15.87.01-37.28-.23-51,3-12.84,3.02-31.08-3.63-42-1-1.89.45-6.11,2.53-8,3-9.32,2.31-25.13.03-33-1-3.07-.4-3.47,1.57-5,2h-30c-14.96-.04-34.98-4.53-51-1-14.77,3.26-33.49,3.05-52,3q-8.505-.495-17-1c-9.11,1.95-34.39,4.84-46,2-14.77-3.61-24.76-3.6-40,0-12.14,2.87-30.79-3.05-41-1-9.95,2-21.19,4-35,4-16.42,0-35.14-.72-50-4-13.1-2.89-41.99,3.53-53,6h-36c-4.7-1.14-12.14-4.46-19-3-8.18,1.74-19.27,2.25-27,4h-29c-8.81,1.92-28.68,3.52-39,1-17.68-4.32-44.98-3.2-64,1h-45c-30.56,0-58.41-3.31-87,3h-44c-23.83,0-44.86.9-63,5-5.84,1.32-14.38-.02-19,1q-25.5-.495-51-1c-1.89.47-6.11,2.53-8,3h-47c-22.84,5.61-56.98,1.08-79,6q-34.5-.495-69-1c-28.81,7.68-76.48,2.18-106,9h-41c-1.07-.22-4.38-1.63-7-1-5.44,1.3-13.09,3.64-19,5h-21c-1,1.33-2,2.67-3,4-4.36,1.9-24.58.57-30,2-11.168,2.94-26.383-2.47-36-1q-29.5,4.995-59,10H873c-11.692,2.64-24.83,4.43-36,7-9.877,2.27-26.148-1.05-33,0-31.615,4.86-67.236,6.86-96,14H684c-19.41,4.86-42.644,6.21-63,12-6.127,1.74-13.118,5.39-19,7H575c-13.879,3.79-30.113,7.41-46,11q-17,.495-34,1c-4.855,1.68-12.951.19-19,2-1.629.49-6.565,3.49-8,4-5.369,1.91-15.546.01-20,1H432c-17.008,4.2-52.916,10.01-71,1q-3-3.495-6-7c-20.585-20.55-11.938-40.07-19-72-1.75-7.91,1.681-18.03-2-24a86.355,86.355,0,0,1-5,32v21c-1.045,4.4-.485,24.58-2,28-2.559,5.77-15.791,21.21-23,22-5.586,3.58-23.09,1.13-31,1-4.843-7.39-14.434-11.74-19-19-5.137-8.17-12.374-17.47-20-23-7.672-5.56-20.49-11.84-25-20-8.339-15.08-16.061-29.34-26-43-4.865-6.68-11.248-10.43-16-18-4.459-7.1-20.705-17.44-24-24v-5c-1.231-3.07-4.867-7.16-7-10-8.9-11.85-22.576-20.32-31-33-4.532-6.82-7.848-19.26-11-27v-20c-0.665-1.99-4.274-5.09-5-7v-12l-4-3v-16c-2.874-13.47-3-27.99-3-43v-17c0.531-1.27,3.43-3.1,4-5v-9C88.365,1452.87,100.169,1445.62,105,1442Z"/>
</svg>
