<svg xmlns="http://www.w3.org/2000/svg" width="3000" height="1925" viewBox="0 0 3000 1925">
  <defs>
    <style>
      .cls-1 {
        fill-rule: evenodd;
      }
    </style>
  </defs>
  <path id="Fond_1" data-name="Fond 1" d="M2319,30c5.39,3.05,3.67,4.978,8,9,3.54-1.792,4.72-2.968,8-1,33.43,18.475,80.3,93.52,94,126,46.99-9.974,111.42-56.873,137-86,12.22,2.485,22.83,3.625,36,6l6,15c4.16-.35,2.07.626,7,0,0.64,6.9.1,29.577,3,35-1.33-.667-2.67-1.333-4-2,0.6,4.773-23.21,36.749-26,40-6.64,7.731-8.45,28.325-15,39,1.33,1.667,2.67,3.333,4,5,2.82-.894,108-2,108-2,4.31,1.3,12.84,4.765,18,4,3.95-.586,31.91,2.986,42-4,10.59,4.481,42.11,3.917,55,2,34.92-5.193,78.94-13.7,98-5,10.63-3,14.46-5.672,29-7,11.68,9.218,21.83,11.48,32,15,2.27,7.894,4.35,9.138,8,17-1.67,1.333-3.33,2.667-5,4,3.77,4.863.91,12.908,3,21-2.85,1.215-10.09,8.992-15,16-38.05-2.028-117.91,17.342-154,34-18.56,8.564-37.59,7.411-49,21,0.33,1.333.67,2.667,1,4l85,2c5.92,1.822,21.81,13.429,26,18-2.7,1.6-1.38.339-3,3,4.03,0.9,1.92-.543,4,4,3.87-1.019.47-1.544,4,0-0.6,1.221-4.66,16.446,0,14-6.13,35.709-44.82,24.78-68,36-12.55,6.071-5.51,22.964-23,27-19.48,4.5-28.48-20.087-43-22,0.67-1.333,1.33-2.667,2-4-3.33-.424-4.72-0.558-5-4l3,2c-2.58-4.068-3.63-2.976-7-5,1.73-9.721-1-13.445-3-25l3,2c-8.8-11.093-57.96-2.06-70-14-2.83,2.068-1.23,1.485-4,2-1.22-3.075.03-2.3-5-3,1.15,2.524,1.79.416,1,3-7.22-4.5-14.27-9.749-23-11,2.18-16.608-18-31.087-4-46,1.39,1.923.1,0.6,2,2v-2c-0.14-2.105-.51-0.35,1-2,40.31,4.135,99.58-27.5,145-48-1.96-2.066-.37-1.035-4-2-3.44-2.727-32.53-3.52-41,1-20.9-5.653-120.64-2.721-136,3-20.85,7.767-34.09,14.736-57,15-1.95-4.413-19.23-12.75-24-15,0.81,3.077,1.19,1.832,1,4-1.33-.667-2.67-1.333-4-2,1.14-3.637,1.13-2.736,3-5-4.9-.169-4.09,1.548-6-4-10.38-2.846-4.45-23.035-10-30,9.43-12.876,21.68-29.4,24-42h-1c-10.05,8.414-33.36,12.41-48,24l-6,12-12,8c-9.01-.932-11.33-0.873-15-6-1.95,4.411-5.56,3-7-1,0.67,0.333,1.33.667,2,1-11.79-12.033-26.44-25.376-33-44h-4c2.28-2.619.98,0.107,1-4h-5c2.87-6.12,1.97-7.834-4-11l3-3c-10-7.215-13.88-15.443-20-31l-3,3c-0.53-6.747-7.56-12.754-12-11h-4c-3.32,13.033-5.93,133.046-1,140-8.12,15.386-18.79,17.385-30,23-3.34-7.18-16.17-11.285-27-10-0.86-9.44-10.17-18.5-13-29-8.81,2.047-11.94-5.656-20-5,1-3.918.98-2.183,1-6-6.58,1.264-.85-1.368-7,0,0.67-2,1.33-4,2-6l-18-20c1.36-14.531,11.07-14.584,19-23,7.36,1.812,33.36,7.481,32,9,11.06-7.911,8.46-19.712,14-32,1.39,1.923.1,0.6,2,2-1.01-2.983-2.19-17.35,2-23a17.323,17.323,0,0,1,0-15c-11.23-32.654,6.22-49.428-10-78q3.495-4.5,7-9c-1.19-.761-1.23.4-1-1C2303.55,33.386,2314.83,34.86,2319,30Zm221,68c-0.42.928,0.8,0.676-1,2C2539.33,99.333,2539.67,98.667,2540,98Zm-243,31c0.33,0.667.67,1.333,1,2C2297.67,130.333,2297.33,129.667,2297,129Zm65,7c0.33,0.667.67,1.333,1,2C2362.67,137.333,2362.33,136.667,2362,136Zm8,15c0.33,0.667.67,1.333,1,2C2370.67,152.333,2370.33,151.667,2370,151Zm-1045,7c30.86,4.87,67.21,5.48,93,19,2.66,1.393,10.67-2.614,13-2,4.53,1.193,15.86,4.5,21,7l21-2q13.005,3.5,26,7l12-3c4.8-.93,23.18,5.276,28,7,11.59,4.141,49.14-6.9,59-2,2.33-1.333,4.67-2.667,7-4,25.57,8.341,57.41,1.987,82,9l15-3c10.31,1.537,20.43,8.41,33,5,5.96-1.617,17.24-4.359,24-3,42.8,8.606,94.63,12.675,132,29,7.96,3.477,17.28-4.65,27-2l12,6,9-2,12,8c4.05,0.655,6.64-4.171,9-5,6.86-2.411,60.65,5.74,65,8,3.93,2.044,32,4,32,4,3.97,1.5.37,0.363,3,3,10.61-5.131,16.51-2.042,28-1,4.97,0.451,19.73-.208,24-4,10.9,6.7,35.37,16.4,43,22,4.46,3.271,6.16,11.659,11,15,3.78,2.6,7-2.684,10,1,12.56,15.418,32.12,31.173,48,49l13,4c3.41,2.875,6.46,14.714,13,18l10,1c9.05,6.319,5.55,17.949,19,16,0.35,3.328.18,5.222,3,7,3.83,2.416,15.5,8.032,20,15,1.54,2.377.25,6.324,4,9,4.1,2.931,15.93,2.03,20,6,9.39,9.154,28.4,28.2,23,46,3.97,5.936,10.17,8.683,18,8,2.5-4.854,9.42-5.594,12-9l3-10c6.68-11.856,32.73-9.778,42-14,1.82-.829,1.12-1.8,2,0,4.97,1.172,11.99.528,16,4,1.92,1.392.6,0.1,2,2l-4,1,3,1c-0.33,1-.67,2-1,3-3.08-.808-1.83-1.193-4-1,0.33,0.667.67,1.333,1,2,16.82-1.6,24.62,11.3,31,18,0,0,11.59,1.585,13,3,0.67-.667,1.33-1.333,2-2,2.93-.576,34.62.923,35,1,0.73,0.15,11.27,5.236,9,5,1.78,1.13,21.64-3.793,22-4,18.31,4.756,47.82,9.56,68,5,0.67,0.333,1.33.667,2,1,5.96-3.684,17.73-8.728,27-5,13.05-4.042,14.69-9.089,35-8-0.42,2.889-1.52,1.659,2,5,2.67-1,5.33-2,8-3,1.67,1.333,3.33,2.667,5,4-0.11,3-1.95.723,0,3,2.67,1,5.33,2,8,3-0.9,6.034-2.87,9.2,3,9,17.43,37.035,48.13,54.574,78,84,4.26,4.192,20.32,10.309,26,16,3.62,3.627,8,18,8,18,4.26,2.885,25.22,20.125,23,22,13.34,9.051,28.02,5.58,41,17l-3,6c5.53,3.649,5.8,5.421,7,9,1.6-2.7.34-1.377,3-3,2.67,10.5,12,12.352,21,21,0,0,1.78,12.069,3,13,1.95,2.479,1.71,1.166,5,6-0.33,1-.67,2-1,3-3.16-1.278-1.67-.46-2,4,2.36,2.171,2.86,5.62,4,9-5.93,2.63-10.03,16.609-11,22,11.43,3.658-2.87,30.008,1,45,1.44,5.588,5.4,24.842-3,31l3,4c5.23,8.494-5.36,25.2-3,40,3.5,21.946-1.59,59.619-5,76-3.15-.278-0.59-1.052-3,1,3.16,4.767,2.27,5.946,3,12-1.33-.667-2.67-1.333-4-2,0.67,2.333,1.33,4.667,2,7-0.56,4.358,2.79,9.2,2,14-2.7,16.358-16.26,31.122-14,47,1.53,10.73-8.92,44.44-10,43-6.55,15.3-3.88,47.41-11,52-2.34,2.12.11,0.44-3,1,0.33,3.67.67,7.33,1,11-2.33,1-4.67,2-7,3v9c0.67-1,1.33-2,2-3,0.73,13.26-4.8,30.57-17,44,5.22,3.87-14.88,51.16-20,58,3.07,3.92-13.82,31.79-19,38q-1.005,7.995-2,16c-0.8,1.67-13.17,15.61-14,12-15.13,29.34-31.56,53.1-52,74l3,3c-8.55-.07-59.64,46.37-55,55,2.34,7.34,11.22,10.89,16,16,13.7,14.64,28.38,31.6,45,46,6.13,5.32,7.87.03,16,3,5.04,1.84,18.1,12.53,24,16-2.16,4.48-2.02,5.69,0,12,0,0,15.12,6.28,11,9,26.63,16.58,29.35,64.82,15,93-0.89-2.05-.43-2.59-2-1,0.77,14.69-5.4,18.29-8,31-3.77,18.42,2.53,60.95,5,77,0.75,4.88-6.62,19.42-14,21-1.28-4.17-.45-0.48-4-4-1.15,5.75-3.81,6.66-10,7q-5.505-4.5-11-9c-6.61-3.41-9.47,6.61-17,4-13.23-4.59-27.35-9.05-43-10-13.47-.81-25.53-1.12-45-5-12.68-2.53-29.56,2.43-48-1-7.52-1.4-13.75,5.01-20,4-25.29-4.1-89.01-9.85-116-1-5.65,1.85-9.41-2.13-14-3-11.66-2.2-45.44,8.42-59,1q-4.5,3.495-9,7c-14.87-11.37-79.57,1.11-102,0-13.52-.67-58.8-5.26-71,1-23.19-7.44-54.29-6.57-78,0q-7.5-1.005-15-2c-17.46-1.57-43.68-1.74-62,0-1.6.15-34.37,3.44-35,4-2.23-1.45-16.25-4.18-24-3q-6.495,1.995-13,4c-33.27-3.65-104.55,2.35-135,6-11.57,1.39-37.84-4.93-54-2q-10.5,3.495-21,7c-10.43,1.96-28.75-2.16-37-6-6.57-3.06-22.85,2.66-32,2-20.05-1.44-46.23,1.8-62,5-14.54,2.95-28.66-1.58-43,3-9.81,3.14-16.47-3.47-22-5l-1,1c-7.71.79-35.52-2.62-45,0-12.5,3.45-34.37,5.04-48,5q-8.505-1.005-17-2c-57.49,17.94-106.88-1.54-158,16-0.7.24-44,2-44,2-3.71-1.06-8.92-5.08-15-4-63.96,11.39-142.24-3.23-198,16-7.94,2.74-22.51-2.8-33-1-16.06,2.76-54.774,3.66-64,10-4.025,2.77-21.829-3.08-31-1-14.457,3.28-79.077,10.11-86,4-8.075,4.67-74.934,11.68-79,7-9.257,5.86-20.825,6.95-29,9-5.332,1.33-13.216-2.21-23-1-8.676,1.07-22.772,7.06-27,9h-1c-3.2.45-4.718-2.26-6-4-1.8-2.45-33.2,5.03-36,6,1.077,1.69.7,0.13,0,2-16.84-4.08-39.128,17.54-57,15-24.023-3.41-129.085,6.45-154,24-2.922,2.06-23.178.47-24-1-7.692,9.68-13.955,5.56-20,8-0.554,9.25-3.681,1.14-11,6,4.529,10.99-19.892,13.81-25,16-25.769,11.07-24.377-10.17-47-19,0.493,2.18.96,0.92-1,2-5.378-3.28-13.883-3.71-17-9-1,1.33-2,2.67-3,4-3.992-9.29-12.455-2.54-21-9-9.62-7.28-13.6-14.41-20-20l-4-3s-5.253-2.33-4-4c2.165-2.88-.93-1.81-3-2l2-6c-1.333.67-2.667,1.33-4,2-0.82-12.66-55.588-74.8-60-74,0.9-3.39.849-1.33,1-4-10.679-3.07-22.294-35.38-32-47-5.69-6.81-24.293-19.43-34-24-9.056-4.26-18.265,1.79-27-9-10.352-10.04-20.376-100.4-24-132,0.974-.64,1.6.15,1-2-5.329-23.34-7.6-47.58-20-64,1-.67,2-1.33,3-2-5.631-1.14-4.991-1.46-7-6,1.333,0.33,2.667.67,4,1-3.031-1.85-3.035-1.52-7-1,4.3-21.64-22.666-29.98,4-55-2.6-.87-3.492.4-2-2,8.677-1.75,15.791-10.95,20-13H70c18.087-7.97,24.174-8.36,39,6,0,0,19.944,1.77,20,1,1.852,2.36-1.789,1.66,2,4,0.541-4.85,6.259-.94,14-3,0.333,1.67.667,3.33,1,5,24.417-8.53,33.723.22,48-9,2.661,2.46,1.529,1.36,2,4,8.476-1.39,42.538-6.49,43-9,3.037,1.94,1.044.33,2,3,4.907-.8,5.343-1.39,8-4,11.288,6.4,33.555-1.75,51-3v-17c-2.806-3.34-23-19-23-19-18.141-25.98-37.023-55.24-56-79-12.419-15.55-22.721-55.92-34-59q-2.5-4.005-5-8c-6.808-8.54-29.984-36.39-28-44v-12q5-2.505,10-5c-0.815-32.86,11.818-61.14,19-83,0,0,1.859-33.52,1-35,5.347-11.828.861-20.252,4-31,5.462-18.7,9.992-47.115,14-61q2-19,4-38c0.925-2.067,7.51-11.878,7-17-0.625-6.269,12.864-26.039,9-27l3-4c3.922-8.1,12-28,12-28-3.632-14.874,13.689-66.553,22-79l13-66c7.323-25.992,24.605-79.293,23-96-0.9-9.414,8.337-23.648,12-30,2.707-4.694,9.06-42.664,8-49l3,2c-0.123-14.722,5.771-22.444,10-33-1.961-10.867,8.958-46.106,16-65,2.193-5.883,3.935-18.515,1-27,4.85-26.582,6.381-52.131,25-67,3.638-2.9,23-3,23-3,3.248-3.6,2.87-7.105,7-11,0,0,82-9.49,88-8,5.431,1.349,21.722,4.342,29,3,19.8-3.651,44.012,1.42,69,6,0,0,16.81-5.479,19-4,0.2,2.108-.157,1.179,3,1,2.225,4.437,16.463-2.788,26-3,0.755,4.175-1.171,3.774,3,3,9.876,4.786,34.306-4.2,36-8,3.157,2.245,22.66,3.114,26,13l-2,1c7.71-.052,14.954,2.338,17,10,4.685-2.553,20.89,1.434,22,4,6.95,3.02,58.048,41.247,63,52,2.835-1.11,1.454-.865,4-1,0.425,2.6-.976.546,1,3,0.82-1.824.45-.631,2,0l8,10c1.339-1.427,1.247-1.76,3-3,6.986,19.418,37.373,14.5,50,30,14.031-8.74,24.174-13.377,34-22,1.611-1.414,3.191-2.5,5-1,7.79-6.139,13.471-17.672,22-23,3.624-2.264,10.262-2.326,15-6l13-15c8.363-4.765,18.431-2.367,28-8,13.7-8.063,35.78-27.8,49-33l12,1c11.36-1.6,20.38-6.833,28-10,5.77-2.4,19.99-.348,27-2,47.35-11.159,93.88-27.784,145-11,6.56,2.154,17.89-5.521,21-5-2.09-15.333-1.6-33.571-9-50,8.79-3.894,10.36-15.331,19-22,15.11-11.661,28.04-7.817,38-19l-3-1v-1Q1318.005,160,1325,158Zm38,4h0Zm1020,12h0Zm8,2v0Zm-2,9c0.33,0.667.67,1.333,1,2C2389.67,186.333,2389.33,185.667,2389,185Zm2,5h0Zm16,23c1.92,1.392.6,0.1,2,2C2408.33,214.333,2407.67,213.667,2407,213Zm9,4c0.67,0.333,1.33.667,2,1C2417.33,217.667,2416.67,217.333,2416,217Zm-1154,2c0.33,1,.67,2,1,3h-1v-3Zm1190,8h0Zm-506,1h0Zm487,0c0.67,0.333,1.33.667,2,1C2434.33,228.667,2433.67,228.333,2433,228Zm-483,1h0Zm-526,2v11c11.78,4.247,17.29,21.6,22,28,1.84,2.5,17.79,10.765,18,10,9.54,16.353,40.16,56.588,64,58,0.26,2.433.5,4.379,3,7,1.25-1.857.89-.547,2-1,0.28,2.366-.22,1.247,1,4,25.57,0.127,29.35,3.388,56-1l13,1c11.75,5.369,22.02,8.3,34,11,0,0,66.76-4.706,73-4l46,10c17.65,2.987,35.92-4.648,51-2,22.94,4.028,87.84,15.67,112,6,9.05,2.813,25.68,7.874,35,9,15.26,1.843,72.66,2.817,83-1,13.63,4.067,35.22,8.033,51,14,4.37,1.653,13.3-4.386,19-3,8.33,2.025,19.05,7.982,26,10l15-4c4.16,0.918,16.12,6.271,21,8l19-3a195.394,195.394,0,0,1,36,11c0.87-2.605-.4-3.492,2-2-5.3-8.52-5.81-10.832-7-19-11.61-3.678-20.93-14.809-34-20,0.73-5.673.06-6.508-3-8-3.66-3.862-9.57-3.737-14-7-3.65-2.687-1.55-8.7-3-11l-12-6q-1.995-5-4-10l-9-1c-24.35-17.757-43.02-26.482-66-34-7.51-2.457-29.81-3.024-41,1-33.27-7.6-43.77-3.538-76-12-7.37-1.934-16.9,2.975-24,1-4.37-1.214-5.77-5.012-10-7-2.41-1.135-7.65,1.07-9,2-24.97-12.893-46.62-5.841-68-17l-14,2c-5.88-7.094-73.66-9.313-92-15q-4.995,2-10,4c-27.1-6.476-59.44-3.2-82-6l-20,3c-4.87-.964-12.11-5.28-20-7-24.41-5.324-43.24,4.059-67,5-1.67-.667-3.33-1.333-5-2-12.1-3.767-25.77,1.668-40-4C1470.49,229.843,1455.95,239.874,1424,231Zm1541,16c0.33,0.667.67,1.333,1,2C2965.67,248.333,2965.33,247.667,2965,247Zm-312,15h0Zm-44,3c0.33,0.667.67,1.333,1,2C2609.67,266.333,2609.33,265.667,2609,265Zm-316,10c0.67,0.333,1.33.667,2,1C2294.33,275.667,2293.67,275.333,2293,275Zm236,4c0.67,0.667,1.33,1.333,2,2C2529.61,279.077,2530.9,280.4,2529,279Zm-224,4h3l-3,1v-1ZM381,291h0Zm1718,10v0Zm-898,7c-17.81,15.17-30.87,3.027-51,12-18.27,8.142-32.63,5.5-56,14l-18,2c-30.25,17.929-84.759,43.661-118,63-25.206,14.664-36.494,44.954-58,63,3.377,4.451,13.92,35.48,12,40,10.421,3.69,32.781,77.187,40,77,0.24,8.7,4.425,16.451,12,18,1.392,1.923.1,0.6,2,2,5.9-21.554,29.152-31.443,42-45,6.48-6.836,4.58-13.9,10-20,32.92-37.01,114.28-78.277,167-96,9.92-3.333,15.74.35,26-2,26.07-5.968,61.87-11.088,78-15,24.65-5.98,64.9,5.447,94-2,9.64-2.467,39.43-2,36-3,4.58-8.27-40.75-63.352-50-77-4.2-6.194-15.45-10.342-16-12-1.33-.667-2.67-1.333-4-2-1.8-2.062-14.35-15.245-18-14-5.46.082-7.6,5.216-14,7h-1c-7.88,1.01-17.51-5.134-25-7l-18,3C1254.9,314.594,1216.17,313.852,1201,308ZM487,320v3c-14.735-5.235-36.114,3.859-52,6-0.049,4.1,0,2.3-2,6,5.943,1.959,3.87,6.7,0,11l7,1c-4.2,9.325,2.16,19.277,6,26,3.142-.355,1.285-1.657,3,1l3,2c-1.454,1.7-.006,1.988,2,1,0.4,3.8-1.124,1.244,1,4l2-1-1-3c15.891,7.88,41.976,28.487,46,24,4.516,4.207,7.593,10.4,15,13,3.47,1.22,6.086-2.394,10-1-1.4,7.939,10.1,8,19,11,1.316,5.751,20.658,23.13,27,19,32.6-15.059,102.661-16.1,138-27,3.966-1.223,37,3,37,3,11.458-2.6,17.292-3.708,22-10l-3-1,4-2q-2.5-2.5-5-5l4,1c-4.516-2.846-6.124-1.845-11-1,0,0-16.432-22.363-17-23-0.9,1.658-29.768-20.517-31-22q-1-2-2-4c-1.337,1.792.175,1.519-2,1-16.837-16.12-58.129-30.8-76-19v-4c-5.292,2.651-9.008-.113-12-2-16.448,13.534-87.053-2.024-98-6-0.761,3.854-1.311,1.956-5,6-9.513-4.615-24.518.252-27-8h-2Zm0,3h2C487.255,323.977,488.78,323.912,487,323Zm2128,2c0.67,0.333,1.33.667,2,1C2616.33,325.667,2615.67,325.333,2615,325ZM533,326h2c-1.8,2.042-.015.707-3,2Q532.5,327,533,326Zm2309,18h0Zm-224,11h0ZM421,360l-8,4-4-3c2.009,4.934,6.248,12.731,4,18,5.116-1.192,6.787-.874,11,0l4-6c2.355,3.1.257,2.454,4,2l-1-2C430.69,370.673,428.867,360.5,421,360Zm14,10,2,1Zm-2,4c2.663,2.446,2.343,2.386,5,0h-5Zm-55,2v0Zm49,0-1,3,2,1,3-2v-1C427.115,376.521,430.044,377.812,427,376Zm-8,1,1,2Zm15,1-1,2C434.857,378.754,433.547,379.107,434,378Zm410,3,2,1Zm-423,1v0Zm49,3v0Zm1134,10c-15.77,8.636-31.27,5.025-49,8l-3,7c4.87,12.455,2.52,41.714,11,50,7.38,7.2,23.13,7.669,28,9,8.57,2.342,21.07,14.2,27,17,7.45,3.517,13.62.73,20,5s10.21,15.976,17,20c6.27,3.717,10.01-.4,15,4,5.47,3.329,11.51,26.65,6,33-2.5,2.875-44.91,74.865-42,82-0.7,2.44-9.57,10.115-5,15-4.22,11.485-17.12,29.488-10,40,7.75,6.795,48.23-5.525,64-5,5.44,0.181,3.89-1.234,8-4,3.82,2.166,10.86-1.626,17,1,11.77,5.035,24.27,10.491,35,20v8c26.93,3.018,13.36,54.827,9,70-2.43,8.436,1.88,19.175-2,30-4.64,12.945-7.6,27.687-12,46q1.005,11.5,2,23l-6,10q-1.005,19-2,38c-2.17,3.351,10.97,38.455,10,42-11.56,42.43-23.13,90.9-39,136-4.33,12.3-5.14,61.32-8,65-7.53,13.3-19.17,15.54-17,34,6.21,2.92,12.76,15.86,11,20,4.82-.45,4.79.1,8,5-11.35,19.87-23.77,31.71-38,47q-4.995,3-10,6c-5.98,9.3-1.57,18.61-5,29-5.39,16.31-25.94,48.48-22,66,26.52,6.96,51.46-11.22,77-9,20.53,1.78,64.19,3.56,86-5,17.4-6.83,37.34,5.5,57,0,19.46-5.44,43.58-8.96,66-14,13.41-3.01,18.71,2.73,35,0a430.215,430.215,0,0,0,49-11q5.505-10.5,11-21c2.39-8.31-1.19-24.59-4-31q0.495-13.005,1-26c-1.87-16.61-2.21-44.73-9-64q1.005-10.005,2-20c-3.75-21.82-.24-49.22-6-69-0.23-.79-2.79-0.62-2-4,0.73-3.13,7.32-13.41,4-24-5.02-16-9.07-100.57-5-121q-2.505-38.5-5-77c4.48-32.066-11.73-87.578,0-108l-3-12c-5.85-19.016,4.14-29.374,17-37,12.67,5.856,15.08.4,28,4,46.53,12.947,107.47,25.2,142,11,5.19-2.133,25.07,11.255,40,4q5.505,2,11,4l19-4c13.67-2.426,39.21,8.8,49-6h-3c11.07-25.3,18.78-71.215,17-102-2.53,2.451-.54,1.218-3,2v-1c4.88-12.169,9.05-93.655,13-95-1.67-1-3.33-2-5-3,0.33-1.333.67-2.667,1-4,0.67,0.667,1.33,1.333,2,2-1.84-10.206-.96-24.247,3-30-3.8-.4-1.24,1.124-4-1,2.64-8.9,1.56-20.2-2-30-11.57-4.041-63.69-23.647-75-13-7.8-4.693-21.09-9.3-30-12-6.39-1.939-27.11,1.23-32,3-5.1,1.846-36.72-12.785-39-14-8.39-4.466-31.32,3.147-43,3-13.22-.166-22.51-6.452-36-12-13.9-5.716-53.73,5.708-66,4-10.08-1.4-24.83-6.451-37-9-26.72-5.6-49.15,4.8-69-5l-13,4c-11.44-2.324-27.68-3.978-40-8-18.66-6.1-30.03,6.878-44,5-25.61-3.442-56.21-10.7-90-17-16.8-3.133-36.26,12.035-56,0,0.33,1.333.67,2.667,1,4C1625.02,398.278,1613.19,396.661,1604,395Zm52,5v0Zm-894,1h0Zm4,2q0.5,1,1,2Q766.5,404,766,403Zm650,3c0.33,0.667.67,1.333,1,2C1416.67,407.333,1416.33,406.667,1416,406Zm1307,3c0.33,0.667.67,1.333,1,2C2723.67,410.333,2723.33,409.667,2723,409ZM768,412v0Zm-404,1v0Zm1055,6c1.33,0.667,2.67,1.333,4,2C1421.67,420.333,1420.33,419.667,1419,419Zm-743,1h0Zm1744,0h0ZM376,431v0Zm831,3h0Zm1250,8c0.67,0.333,1.33.667,2,1C2458.33,442.667,2457.67,442.333,2457,442Zm-1280,1v0Zm-364,5c-13.92,9.142-27.366,1.5-36,3-3.206-1.187-22.152,5.079-31,4,0,0-36.713.59-38,1l-10,7-2-2c-6.3-2.886-71.282,3.471-78,7,0.966,1.464,3.189,1.541,1,2-8.08,9.178-28.827,10-32,14l-5,4c10.65,6.475-2.163,20.275-3,28-2.895,26.7-16.568,44.412-28,75,2.6,0.425.546-.976,3,1q-2,6-4,12c-1.9,2.526-.356-0.734-3,1,3.912,12.488-27.678,95.986-36,108l3,6-12,29q-2.5,18-5,36c-12.645,25.558-16.113,48.5-27,65q0.5,8,1,16c-2.636,10.457-4.481,20.153-8,32-0.966,3.251-4.829,4.837-7,7-1.932,1.925-17.42,45.125-20,50,0,0-2.252,24.65-2,25-9.922,21.85-9.246,35.88-16,60-3.468.82-1.265-1.16-3,2,2.889,3.95-11.461,38.88-17,45,3.512,0.82,1.461-1.26,3,2-6.425,3.01-8.605,13.4-7,19-1.333-.33-2.667-0.67-4-1,3.4,10.03-1.347,20.74-7,27,7.53,5.29-4.367,16.99-3,21,1.875,5.5-13.533,55.52-20,69,2.854-1.3.6-1.51,4-1-2.9,10.5-7.212,16.9-7,35-3.393-.9-1.326-0.85-4-1,3.123,8.08-3.58,14.86-3,27-1-.67-2-1.33-3-2,0.745,14.18-13.344,26.8-4,40,7.981,2,38.244,13.29,38,14,22.158-16.45,67.862,18.72,92,6,1.038,4.32.352,2.8,3,5,1.036-6.71,65.415,9.72,76,2,0.333,1.67.667,3.33,1,5q7.5-3.495,15-7c1.089,8.05,23.234,3.48,24,0,5.582,1.46,10.567,7.75,15,4,2.011-.59,5.546-1.22,3-6,4.274-14.79,7.3-17.55,12-27-0.667.67-1.333,1.33-2,2,2.106-7.69,7.338-27.67,3-32,6.64-8.06,13.106-44.18,16-57l-3-12c-2.27-12.88,2.019-30.79,8-41,2.13-3.64-1.357-27.91,0-36,8.779-8.99,37.089-16.85,41-17,7.562-.29,12.525,9.07,19,6,13.575-6.43,39.93-17,53-14,14.5,3.33,26.651-2.97,39-8,9.334-3.81,38.889,13.11,42,15,18.277,11.09,11.05,47.1,17,59,17.8,35.6,9.955,92.11,33,117,0.28,0.3,2.167,27.59,4,32,2.655,6.38,9.7,9.19,14,14,39.459-6.27,59.435-30.95,91-50,4.92-2.97,7.93.67,13-1l24-12c1.23,3.37,11.56-5.88,17-9,0.43,2.6-.98.55,1,3,6.18-9.3,9.67-6.91,21-11,8.49-3.06,13.32-13.2,21-19q9.495-.495,19-1c6.24-3.44,5.05-11.43,17-14-6.92-28.1-9.67-50.21-22-78l-6-33c-1.28-3.28-5.16-4.61-7-7-4.54-5.9-4-16.61-6-22q-12.495-25.995-25-52-1.995-19.005-4-38c-10.42-14.6-9.88-37.5-20-54-4.6-7.5-32.18-73.617-27-78-17.539-23.711-17.871-48.979-33-78q-2.5-13-5-26c-10.693-24.423-18.775-56.117-34-77-4.946-6.783-5.23-33.6-8-32l-3-2c-2.724-5.576-9.55-33.22-14-28-7.487-11.362-8.843-29.755-11-36-2.537-7.345-12.757-20.756-18-29l-3-19c-8.29-16.73-17.236-42.157-28-52-5.72-5.23-11.971-38.92-16-36l-2-3-13,2,2-3C821.46,450.361,818.307,449.414,813,448Zm-300,4v3q0.5-1.5,1-3h-1Zm-174,2,2,1Zm168,1,2,2,2-2h-4Zm13,0v0Zm-8,2v0Zm220,0q0.5,1,1,2Q732.5,458,732,457Zm-214,2c1.8,2.042.015,0.707,3,2C519.2,458.958,520.985,460.293,518,459Zm148,2h0Zm-17,1v0Zm6,0,4,1Zm-107,3v0Zm802,0c-16.93,10.382-45.96,2.076-66,6-26.01,5.092-52.14,12.479-65,22-6,4.439-22.84,4.528-26,0-19.29,19.352-57.21,28.98-76,42-8.14,5.645-23.87,16.118-35,25q-2.505,5-5,10c-4.97,7.026-26.7,21.861-31,24,1.34,2.763.63,0.294,1,3-20.52,6.734-25.32,35.16-32,54q-5.5,7.5-11,15c-1.06,2.921-6.074,8.812-9,19q0.5,1,1,2c7.56,28.406,22.49,58.994,36,90,17.29,39.688,23.24,104.949,54,140q2.505,21,5,42c5.99,15.493,18.58,30.332,19,49,2.52-1.15.42-1.79,3-1,2.63,39.5,36.23,90.04,41,127,2.3-2.77-.58-2.43,3-2-0.49,16.79,10.86,46.2,10,61h1c0.76-1.19-.4-1.23,1-1,2.82,2.94,30.94,61.23,31,69-5.46,14.53-18.51,32.51-41,25q-9-2.505-18-5c-24.83,6.15-39.22,23.53-72,31-3.53,21,22.02,29.04,39,38,15.48,8.17,43.49,17.47,62,34,4.31,3.85,47.11,3.43,63,5,71.29,7.06,140.77,5.23,199-29q13.005-2.505,26-5c12.86-5.16,36.75-14.25,51-22,18.02-9.81,36.46-24.35,53-38,8.5-7.02,15.67-17.99,26-23-9.82-50.72,23.22-32.47,36-48l-18-39c-3.28-3.7-7.1-4.68-9-8-6.13-10.71-4.72-21.73-12-33q-6.495-5.505-13-11c-1.86-2.31-6.44-19.22-6-20-9.27-15.56-21.4-32.77-30-47-1.94.15-3.51-.65-2,1-4.48-2.94-37.39-56.75-38-59-33.19,3.56-52.65,32.87-76,50-18.49,13.56-130.04,48.25-167,19-2.42-1.92-5.99,2.58-11,0-18.14-9.35-32.73-36.03-40-51q-6-5.5-12-11s-10.85-48.456-10-53c0.86-4.561,21.43-59.241,17-65,6.23-11.468,14.6-30.38,13-45,4.17,0.509,1.61,1.782,4-2-2.14-22.417,45.84-83.34,69-82v-1l-3-1c16.28-2.63,15.97-12.5,29-20,3.04-1.752,57.02-13.981,74-11,14.95,2.624,89,20,89,20,9.18,5.037,27.33,24.633,41,22,7.09-26.566,19.32-53.2,30-80,0.76-1.91,1-4.355-1-6,5.73-8.119,14.43-15.083,18-25,2.2-6.117-1.05-10.3,0-16,0.89-4.812,5.93-5.1,8-8q0.495-7.5,1-15c10.27-27.822,35.69-58.377,35-92-5.12-1.18-5.24-6.472-10-10-9-6.666-33.16-19.269-46-26,0,0-11.58-.831-15,2-9.84-6.062-32.01-12.806-45-22-5.34,7.221-20.15-1.771-30-3-13.2-1.647-25.15-6.374-39-10l-11,3c-19.71,1.94-41.04,1.7-56-1C1351.33,467,1350.67,466,1350,465Zm4,1c0.67,0.333,1.33.667,2,1C1355.33,466.667,1354.67,466.333,1354,466Zm-824,3v2C530.977,469.255,530.912,470.78,530,469Zm-191,1,2,1Zm983,0c0.33,0.667.67,1.333,1,2C1322.67,471.333,1322.33,470.667,1322,470Zm1396,10c0.33,0.667.67,1.333,1,2C2718.67,481.333,2718.33,480.667,2718,480ZM586,490q0.5,1,1,2Q586.5,491,586,490Zm-6,15v0Zm1940,2c0.33,0.667.67,1.333,1,2l-3,1c-5.29-.7-36,3-36,3-8.36,7.945,5.58,23.786,6,36,0.5,14.57,43.49,36.573,54,51q4.005,7.5,8,15c14.97-7.045,35.71,7.711,53,5,20.98-3.29,28.24,2.96,49,1,23.83-2.25,56.41-11.235,69-5,9.25,4.581,55.95.631,57,0,3.44-2.07,4.24.055,3-4,0.33-1.667.67-3.333,1-5-11.61-3.556-19.51-21.8-43-32v-8c-2.53,2.451-.54,1.218-3,2-1.06-5.7-3.6-8.764-7-12-0.49,2.689.88,0.828-2,3-3.2-5.365-15.41-6.381-15-11l-5,2c-0.16-4-11.37-14.071-16-17l-3,3c-3.08-9.812-14.12-11.327-13-18-8.9,2.129-26.54-7.323-39-8C2602.22,509.164,2556.07,514.639,2520,507Zm138,5c0.67,0.333,1.33.667,2,1C2659.33,512.667,2658.67,512.333,2658,512ZM575,515l2,1ZM353,525l2,1Zm1999,13c-2.27,7.6-3.27,10-2,18,6.33,0.757,22.43,5.816,26,1-4.55-1.821-10.74-6.716-12-11,1.92-1.392.6-.1,2-2l-9-6h-5Zm-1338,1c0.33,0.667.67,1.333,1,2C1014.67,540.333,1014.33,539.667,1014,539Zm95,0v0Zm1253,0c0.67,0.333,1.33.667,2,1C2363.33,539.667,2362.67,539.333,2362,539Zm332,2c0.33,0.667.67,1.333,1,2C2694.67,542.333,2694.33,541.667,2694,541ZM290,576h0Zm661,10v0Zm1407,17c-3.24,4.52-9.7,2.711-13,8,0.5,4.722-2.16,5.853-3,11l3,21c2.27,15.451-4.07,27.245-6,36s2.97,35.007,1,39c-0.4.817-4.31,1.253-5,3-4.18,10.605,7.73,19.05-1,27,1.15,7.54,5.49,8.122,5,11,3.12,10.45-7.68,25.009-11,36-12,4.543-22.75,9.951-35,1-7.51,3.678-15.35,5.369-27,5-1.68-2.984-1.67-2.409-2-5-14.52,5.474-28.34-5.335-35-8l-16,3c-15.53.556-35.01-3.68-45-8-15.32-6.621-30.36,10.949-40,2l-6,4c2.07,4.545,4.06,5.514,3,11-7.93,3.121-23.53,46.733-18,58-24.88,21.144-5.87,55.9-15,88-3.78,13.278-8.36,29.5-7,45q1.995,9.5,4,19c-4.6,14.39-5.66,34.66-1,57,2.74,13.16-4.24,28.57-2,40,9.98,50.99,27.42,123.54,47,164,18.31,37.85,34.43,70.35,67,94,3.59,2.61,14.39,22.33,20,18,14.36,12.28,66.83,52.78,79,54,0.76-.47,29.17,13.09,31,12,1.19-2.5-.64-0.98,2-2,2.65,7.83,53.38,15.2,66,15v-4c19.57,10.53,111.34,9.82,129-3-0.33-1-.67-2-1-3,26.82,0.08,98.85-48.85,112-65-1-.33-2-0.67-3-1,5.76-1.42,3.98-1.06,8-5,1.78,3.58-.53,1.18,3,3-0.62-8.34,41.1-42.85,50-52,13.76-14.14,16.41-32.15,31-40-2.17-2.07-2.17-.93,0-3-0.16,1.91,3.45-.5,8-3-4.77-1.45-2.5.7-4-4,3.61-.67,14.84-15.34,16-23,0.67,1,1.33,2,2,3h1c-0.28-4.86.12-7.63,5-10l-3-3v-1c3.65,0.91,2.04-.04,4,2l2-2c-2.04-1.8-.71-0.02-2-3,3.14-2.06,2.07-.48,3-5,1.67,0.33,3.33.67,5,1-1.31-4.58-.47-11.69,2-18,4.96-.14,7.79-6.28,11-11h-3c2.1-2.49,17.47-35.12,15-41,1.33,0.67,2.67,1.33,4,2-1.87-7.41,4.7-17.1,12-21-1.22-14.62,3.99-15.29,7-27-2.6-.43-0.55.98-3-1,7.4-4.12,13.36-46.23,16-52,1,0.33,2,.67,3,1-1.7-5.79-.53-13.59,5-16-2.38-3.96-2.66-3.91-4-8,1.33,0.33,2.67.67,4,1-2.42-9.56,1.26-10.53,3-21h-3c1.96-2.26,1.79-2.62,5-4-0.97-1.46-3.19-1.54-1-2,9.8-15.86,11.7-62.9,20-88-3.38-2.611-2.95-.414-4-6,4.55-11.627,13.49-51.765,7-63-0.33,1.667-.67,3.333-1,5h-1v-7l3-1,3,1c-1.22-6.125,2.75-6.625-4-9v-1c4.1-3.327-2.31-6.041,2-12,0.4,4.03.33,3.912,2,6-3.9-11.451-5.78-33.071,2-41-1.33-.667-2.67-1.333-4-2,2.44-2.718,0-15,0-15,1.84-4.657,1.06-7.8,4-12-3.14-2.368-5.24-2.769-6-5,8.9-3.4,8.72-40.391,2-50,1.67,0.333,3.33.667,5,1v-5c-3.77-.5-2.3.731-5-3l3-3-5-2c-0.24-3.64,2.58-9.6,2-11-1.4-3.392-5.71.734-5-4-0.41-3.629-1.47-5.326,2-7,0.87,2.605-.4,3.492,2,2-3.41-6.107-1.81-5.3,0-12-43.49-7.778-113.52-29.2-152-17-8.05,2.553-25.74-1.679-38,2-2.95.884-10.51-2.343-17-1-16.78,3.471-37.33.99-51,7,0.67,1,1.33,2,2,3h-1l-3-2c20.15,39.088,1.91,89.784,7,138,0.78,7.365,3.39,10.774,5,16l-3,27,3,10c5.72,21.919-9.34,41.571-1,59,5.22,10.9-12.28,32.854-11,39,4.21,20.2-14.59,51.19-5,65-1.87,3.71-7.11,5.86-9,9-5.58,9.3-1.84,20.48-5,28q-5.505,7.995-11,16c-7.55,18.07-9.82,40.51-21,62-11.91,22.89-65.5,53.42-96,60-8.31,1.79-17.53-6.14-22-9-4.45-2.85-15.39-.55-24-5-24.42-12.61-59.08-55.02-63-85-0.29-2.21-6.41-15.28-10-18q1.995-4.995,4-10c-3.64-14.62-7.01-25.66-10-38-3.74-15.42,7.18-24.95,4-45-3.7-23.294,11.21-84.38,22-117,1.4-4.224.9-20.963,0-22,7.42-13.2,4.3-44.625,21-60,0,0,4.09-30.82,5-32l3,1-3-3c1.92-13.472,6.91-15.561,5-26,3.06-.024,1.4.962,4-1l-3-3c6.8-9.176,7.61-19.82,11-33,7.76-30.144,21.72-43.852,19-73-5.79-1.075-6.59-6.776-13-9C2388.88,606.752,2371.32,612.547,2358,603Zm52,16h0Zm472,5v0ZM687,625c12.7,4.382,34.27,2.6,42,10,7.279,5.456,8.326,17.878,16,23-9.433,21.3,2.958,37.065,5,54,4.06-.716,1.181-2.008,4,1-0.493,7.9,4.35,11.384,7,19,4.9,14.091,5.83,35.025,8,47,18.518,20.676,20.917,49.6,37,79,4.889,8.939,22.532,19,26,29,3.3,9.527-21.192,31-31,33-0.425-2.6.976-.546-1-3-1.558,2.806-1.471,2.338-4,4l-3-4-9,7c-4.727-6.578-59.976.942-73-1-1.884,5.587-5.567,4.056-8,11-13.723.518-46.045-1.029-57-12l-7-26c-2.367-8.483,9.08-68.761,16-74-8.322-7.2,3.739-35.063,3-49-0.389-7.349,4.192-15.921,6-23,9.4-36.8-3.507-92.66,10-119C678.941,631.382,682.773,628.2,687,625ZM381,637l2,1Zm4,3v0Zm2522,12h0ZM461,657l2,1Zm2452,8v3c0.33-1,.67-2,1-3h-1Zm-625,39v0ZM513,713h2c-1.392,1.923-.1.6-2,2v-2Zm-181,6-1,2,2-2h-1Zm2534,14v0Zm-1850,3c0.33,0.667.67,1.333,1,2C1016.67,737.333,1016.33,736.667,1016,736Zm1370,2v2C2386.98,738.255,2386.91,739.78,2386,738ZM375,745v0Zm1069,0c0.33,0.667.67,1.333,1,2h-2C1443.33,746.333,1443.67,745.667,1444,745ZM498,755l1,2C498.576,756.072,499.8,756.324,498,755Zm2417,3c0.33,1,.67,2,1,3h-1v-3Zm-50,15v0Zm0,10c0.67,0.333,1.33.667,2,1C2866.33,783.667,2865.67,783.333,2865,783Zm-488,1v0Zm-982,4c-1.87,3.322-4.78,3.439-8,5v10c1.53,0.75,8.86,10.706,10,15-2.6.866-3.49-.4-2,2,2.68,2.083,18.92,14.961,21,20,0.33,3.333.67,6.667,1,10,8.18-2.227,19.02,16.328,25,21,14.94,11.665,33.25,37.5,59,49,1.5-4.145,3.92-8.2,7-9-1-2.837-2.07-41.2-1-48q2.505-6.5,5-13c-2.1-13.1-21.67-20.692-31-37-4.01.956-.14,0.441-4-1-10.23-3.817-43.98-12.069-58-22C1419,790,1399.61,790.616,1395,788Zm-4,1c0.67,0.333,1.33.667,2,1C1392.33,789.667,1391.67,789.333,1391,789Zm1470,20v0Zm50,13c0.33,0.667.67,1.333,1,2C2911.67,823.333,2911.33,822.667,2911,822Zm-503,2v2C2408.98,824.255,2408.91,825.78,2408,824ZM797,832q0.5,1,1,2Q797.5,833,797,832Zm2066,1v0ZM468,847v0Zm1936,1v3h2C2404.74,847.977,2406.02,849.8,2404,848Zm504,2v0ZM468,853v0Zm1935,9c-9.89,23.4-14.15,64.4-23,94-0.28.923,2,39,2,39,4.01,7.94-12.6,33.12,0,44h1c0.7-6.55,3.25-16.87,5-19,2.33-.33,4.67-0.67,7-1,0.86-6.67,4.81-12.23,6-13-1.91-3.79-.43-2.06-3-3,5.01-12.521,1.21-23.4,4-36,3.58-.485,1.36,1.5,4-2-3.42.453-1.55,1.3-3-2,3.68-3.2,7.23-17.259,10-24-1.33,1-2.67,2-4,3,5.26-14.5,1.16-22.7-2-37,1.33,1,2.67,2,4,3v-1c-5.17-9.969-1.63-37.852-2-38l-3-7h-3Zm457,13c1.15,3.008,2.12,1.308-1,4C2859.33,877.667,2859.67,876.333,2860,875Zm3,8c-1.11,2.835-.87,1.454-1,4l3-2C2864.33,884.333,2863.67,883.667,2863,883ZM455,892v0Zm2408,2c0.67,0.333,1.33.667,2,1C2864.33,894.667,2863.67,894.333,2863,894ZM1570,908v2c2.98,1.068.17,0.642-1,3-3.1,6.237-12.87,66.319-11,74,11.16,45.78,47.31,96.36,75,138l2-2,6-3c1.2-15.3,5.28-27.47,12-37-2.94-.58-0.23-1.16-3,0,2.03-16.34,3.57-26.05,9-38-6.31-18.45-30.3-58.065-42-70-1.71-14.49-29.7-58.417-39-66ZM456,909l1,2Zm328,11,2,1Zm6,1q0.5,1,1,2Q790.5,922,790,921Zm-72,3c3.023,1.259,1.2-.018,3,2Zm-276,6v0Zm254,0,2,1Zm4,2,2,1Zm1712,2c0.67,0.333,1.33.667,2,1C2413.33,934.667,2412.67,934.333,2412,934ZM437,946l1,2C437.576,947.072,438.8,947.324,437,946Zm654,3c0.33,0.667.67,1.333,1,2C1091.67,950.333,1091.33,949.667,1091,949Zm1758,15c0.33,1,.67,2,1,3h-1c-0.33-.333-0.67-0.667-1-1C2848.33,965.333,2848.67,964.667,2849,964Zm-444,9v0Zm-318,10c0.33,0.667.67,1.333,1,2C2087.67,984.333,2087.33,983.667,2087,983Zm760,9c0.67,0.667,1.33,1.333,2,2C2848.33,993.333,2847.67,992.667,2847,992Zm-1740,5h0Zm-687,9v2C420.977,1006.25,420.912,1007.78,420,1006Zm1980,3v3c0.33-1,.67-2,1-3h-1Zm441,7v0Zm-2522,8c-0.333.67-.667,1.33-1,2,0.667-.67,1.333-1.33,2-2h-1Zm1125,10c-0.33,1-.67,2-1,3C1444.37,1034.85,1444.82,1036.46,1444,1034Zm-1151,7c0.667,0.33,1.333.67,2,1C294.333,1041.67,293.667,1041.33,293,1041Zm114,22v0Zm988,5c0.67,0.33,1.33.67,2,1C1396.33,1068.67,1395.67,1068.33,1395,1068Zm1433,11v0Zm-1554,3c0.67,0.33,1.33.67,2,1C1275.33,1082.67,1274.67,1082.33,1274,1082ZM252,1103c1.392,1.92.1,0.6,2,2C253.333,1104.33,252.667,1103.67,252,1103Zm2611,8h2l-2,2v-2Zm-49,3c-0.33,1.67-.67,3.33-1,5h1c1.39-1.92.1-.6,2-2C2814.74,1113.98,2816.02,1115.8,2814,1114Zm-2649,3v0Zm217,25c-0.333,1.33-.667,2.67-1,4h1v-4Zm2424,2v0Zm-5,5h3c-0.67,1-1.33,2-2,3-0.67-.33-1.33-0.67-2-1C2800.33,1150.33,2800.67,1149.67,2801,1149Zm-2423,8c0.667,0.33,1.333.67,2,1C379.333,1157.67,378.667,1157.33,378,1157Zm2421,2v0Zm-2635,6c0.333,0.67.667,1.33,1,2C164.667,1166.33,164.333,1165.67,164,1165Zm2662,47c0.33,1,.67,2,1,3h-1v-3Zm-2465,3v2C361.977,1215.25,361.912,1216.78,361,1215Zm2407,5h0Zm-2128,4v0Zm1411,6c-0.37,5.22-1.62,5.2,4,7,0.36-4.11-1.45-1.74,1-4C2054.33,1232,2052.67,1231,2051,1230Zm-1694,6v0Zm2397,17c0.67,0.33,1.33.67,2,1C2755.33,1253.67,2754.67,1253.33,2754,1253Zm-2067,4c0.667,0.33,1.333.67,2,1C688.333,1257.67,687.667,1257.33,687,1257Zm-1,3-2,3c6.031,12.17,2.306,35.08-8,41,2.9,6.15,5.129,9.76,9,17,13.609-.04,56.819-0.36,65-9C745.154,1304.38,697.764,1260.67,686,1260Zm-60,16q0.5,1.5,1,3h-1v-3Zm2111,2v0Zm-1711,6h0Zm91,5h2c-1.39,1.92-.1.6-2,2v-2Zm1596,13v0ZM339,1314l2,3C339.741,1313.98,341.018,1315.8,339,1314Zm407,3c0.667,0.33,1.333.67,2,1C747.333,1317.67,746.667,1317.33,746,1317Zm1958,3c0.67,0.33,1.33.67,2,1C2705.33,1320.67,2704.67,1320.33,2704,1320Zm-9,7c0.33,1,.67,2,1,3h-1v-3ZM432,1338c0.667,0.33,1.333.67,2,1C433.333,1338.67,432.667,1338.33,432,1338Zm2254,2c-0.33,1-.67,2-1,3C2687.09,1340.71,2686.16,1342.62,2686,1340Zm-1774,1h0Zm565,4c0.67,0.33,1.33.67,2,1C1478.33,1345.67,1477.67,1345.33,1477,1345Zm-918,3h0Zm-31,1c1,0.67,2,1.33,3,2C529.2,1348.96,530.985,1350.29,528,1349Zm2143,1c0.33,0.67.67,1.33,1,2C2671.67,1351.33,2671.33,1350.67,2671,1350Zm-1864,7,2,3Zm-6,2c0.667,0.33,1.333.67,2,1C802.333,1359.67,801.667,1359.33,801,1359Zm970,0h0Zm-966,1v3h2C805.741,1359.98,807.018,1361.8,805,1360Zm4,1c-0.531,2.9.794,4.9-2,3,2.652,1.39,1.672,1.63,5-1C811,1362.33,810,1361.67,809,1361Zm-513,12c0.667,0.33,1.333.67,2,1C297.333,1373.67,296.667,1373.33,296,1373Zm-222,1v0Zm189,0c0.333,0.67.667,1.33,1,2C263.667,1375.33,263.333,1374.67,263,1374Zm22,3v0Zm5,0c0.667,0.33,1.333.67,2,1C291.333,1377.67,290.667,1377.33,290,1377Zm-91,4,1,3c-0.667-.33-1.333-0.67-2-1C198.333,1382.33,198.667,1381.67,199,1381Zm-34,4h0Zm-40,2c0.667,0.33,1.333.67,2,1C126.333,1387.67,125.667,1387.33,125,1387Zm32,3c1,0.33,2,.67,3,1C159,1390.67,158,1390.33,157,1390Zm2439,31v0Zm-85,38c0.33,0.67.67,1.33,1,2C2511.58,1460.07,2512.8,1460.32,2511,1459Zm-44,6c-1.33.33-2.67,0.67-4,1v1c4.01-.58,2.99.05,5-2h-1Zm-2346,7c-2.656,1.51-2,1.45-5,1,1.128,4.85-.058,11.95-4,14,0,0,3.69,25.62,4,29h-1c-1.259-3.02.018-1.2-2-3v3c5.26,3.37,4.211,13.24,2,17h4c0.366,3.62-.113,9.98,0,16,2.535-2.45.542-1.22,3-2-0.917,4.83-2.5,5.04,0,8,0.485-3.58-1.5-1.36,2-4-0.333.67-.667,1.33-1,2,2.331,8.66-1.146,18.03,2,23v-2c0.667,0.33,1.333.67,2,1-1.737,33.94,49.8,61.47,46,75,3.973,0.12,2.068-.9,5,1,0.212,2.16-.114,1.27,4,1v1l1,7c1.8-2.04.015-.71,3-2-0.351,4.38,4.632,14.19,14,15-1,1.33-2,2.67-3,4,9.18-.82,34.523,47.58,43,56-0.667.67-1.333,1.33-2,2,11.8,0.25,35.9,35.57,46,36v7c1.666-.33,3.334-0.67,5-1-1.231,3.01-1.3,1.83-1,5,4.7-2.34,5.584,1.34,5-5a20.263,20.263,0,0,0,4-4c-3.188-1.53-3.965-11.01-4-18,10.629-2.35,2.115-27.01,7-32,0.817,3.51-1.26,1.46,2,3-1.523-6.17-2.021-11.26,2-18-3.9-1.97-14.668-41.65-5-51-1.666.67-3.334,1.33-5,2,1.878-4.95-.755-22.19-4-26-0.333-1.33-.667-2.67-1-4,3.1-11.07-3.788-25.51-8-35-3.848,2.22-4.349,2.61-7,0-0.659-3.06.985-1.55-3-3-1.943,3.04-.328,1.04-3,2l2-3c-28.768-2.41-27.786-44.02-53-50l3-3c-9.3-.53-36.909-18.85-40-29-1.824,2.16.047,2.15-2,2C160.5,1498.53,145.573,1484.35,121,1472Zm-5,10c0.333,0.67.667,1.33,1,2C116.667,1483.33,116.333,1482.67,116,1482Zm-4,9c0.667,0.33,1.333.67,2,1C113.333,1491.67,112.667,1491.33,112,1491Zm2422,10-1,1,2,2h1v-3h-2Zm3,2v0ZM118,1526c0.333,0.67.667,1.33,1,2C118.667,1527.33,118.333,1526.67,118,1526Zm104,13c0.333,0.67.667,1.33,1,2C222.576,1540.07,223.8,1540.32,222,1539Zm-101,4h2c-1.392,1.92-.1.6-2,2v-2Zm1918,7c-16.21,10.45-70.82-.34-91,3-12.43,2.06-23.16-2.83-39-1-24.02,2.78-71.26,10.02-98,1-2.92-.98-36.45,4.41-42,4-14.89-1.1-36.08-5.59-54-3-21.56,3.12-47.88-1.99-66,7-17.2-5.57-68.57-6.78-98,0-11.12,2.56-24.7-3.98-33-2-21.75,5.18-58.52,2.44-79-1-10.54-1.77-32.27,2.94-45,2l-37-3c-21.38,4.17-85.16,8.69-104,4-16.28-4.06-36.23,10.05-52,1-15.3,5.62-52.83,10.51-71,9-7.02-.58-19.75-4.37-27-3-19.75,3.73-89.1,10.04-99,3-7.418,3.61-29.487,8.8-36,2-5.406,4.05-42.286,5.63-45,2-5.807,3.94-18.062,5.09-27,7l-24-3c-37.09,9.64-81.767-5.49-111,4-11.557,3.75-18.986-3.89-28-1l-12,6q-16,.495-32,1c1.286,1.53.223,0.01,0,2-9.617-3.32-48.192-1.91-51,0-0.513,2.73.9,1.32-3,3v-4c-3.08,4.34-1.553,2.61-8,4q0.5-1.5,1-3c-7.351,3.38-71.674,10.95-82,5-10.392,3.82-53.364,5.28-68,3-1.333-.33-2.667-0.67-4-1-10.464,9.49-43.593,11.39-64,16-12.566,2.84-34.017-3.07-48,7,2.738,2.56-.534,31.63,0,44-1-.67-2-1.33-3-2,6.13,12.39,7.553,67.52,10,78v2h1c1.393,3.1.6,3.81-1,6,0,0,3.584,11.75,1,8v3c1-.33,2-0.67,3-1-0.844,6.53-.466,8.15-2,9,1.735,5.05,6.087,9.15,5,13,6.191-1.08,2.454.51,11,3,0.425-2.6-.976-0.55,1-3,8.964,10.74,28.859-5.65,45-1-0.667-1.33-1.333-2.67-2-4,9.269,1.35,14.454-.24,24,4l-3-3c5.167-.69,7.352.27,10-2-0.667-.33-1.333-0.67-2-1q9.5,0.495,19,1v-4c23.221,5.23,61.734-2.78,86-11,5.181-1.75,17.51,2.85,24,0,21.134-9.27,57.286-11.09,86-19q8,0.495,16,1c31.164-8.53,66.61-7.77,106-16,11.468-2.4,18.554,3.25,29,1,18.882-4.08,43.937-8.37,60-6,18.958,2.8,90.22-17.42,108-9,9.53-3.19,22.86-6.62,32-2,0.33-1.67.67-3.33,1-5,13.87,3.95,34.9-1.55,44-4,15.18-4.09,33.39,2.82,50,0,4.42-.75,9.63-4.22,17-4,18.23,0.55,73.44,2.38,86-4,7.84-3.99,55.04,2.84,73,0,18.69-2.95,41.85-5.22,58-3,9.98,1.37,17.23-2.02,25-4,14.25-3.63,24.35,5.35,40,1,6.5-1.81,20.31-5.82,29-4,20.24,4.24,50.89,3.01,70-3h47c33.01,0.58,63.52-1.46,91-6,16.34-2.7,47.12,4.85,72,3,20.54-1.52,78.73-8.04,98-2,10.23,3.2,23.28-4,36,0q7.5-1.005,15-2c21.47-2.25,48.41-4.44,67,1,0.09,0.03,30.87-3.53,35-5,8.29-2.94,74.27-.14,83,2,10.4,2.55,28.74-3.88,31-5l32,3c22.31-5.52,55.22-5.73,74,0,0,0,22.98-2.37,26-3,11.85-2.49,23.46,2.31,34,2,11.13-.33,23.71-3.85,38-3,5.77,0.34,65.43.02,66,1,4.59-6.48,28.75-3.88,36-1,14.98-4.29,35.03-7.48,50-2,15.29-3.96,30.46-4.55,40-2-0.33-1.33-.67-2.67-1-4,13.27,8.7,63.49-3.28,84,1,10.81,2.25,40.08-1.44,49,0,44.99,7.25,94.35,7.51,126-5,1.09,3.25,2.19,2.84,9,3,1.11-5.06,2.56-5.24,5-6-0.43-5.06-.31-7.34-2-11,0.33-.67.67-1.33,1-2,1.33,1,2.67,2,4,3q-2.505-8.505-5-17c0.85-8.51,7.09-16.3,8-26-1.33-1.67-2.67-3.33-4-5-0.29-1.36.35-22.58,1-26-16.13-1.13-25.75-3.92-45-9-14.07-3.71-30.24,5.9-44-2-1.19,4.75-1.33,3.37-4,6-16.39-6.74-27.82-1.28-45-2-14.69-.62-50.72-8.05-63,1-0.57-.35-15.29-4.66-19-4-8.68,1.54-22.3,4.2-31,4-6.19-.14-27.22-0.57-30-5,0,0-29.96,2-30,2l-89-3-26,3c-1.1.37-14.18-1.77-17-2-36.26-2.92-59.14,5.68-94-4-6.58-1.83-43.15,1.28-49,3,0,0-31.46-3.57-33-4-7.91-2.19-53.44,2.27-63,4C2072.54,1555.89,2051.11,1551.26,2039,1550Zm721,16c1.92,1.39.6,0.1,2,2Zm-1612,1c0.67,0.33,1.33.67,2,1C1149.33,1567.67,1148.67,1567.33,1148,1567ZM126,1590l-1,3C127.089,1590.71,126.158,1592.62,126,1590Zm464,7c-0.424.93,0.8,0.68-1,2C589.333,1598.33,589.667,1597.67,590,1597Zm2173,3c0.33,0.67.67,1.33,1,2C2763.67,1601.33,2763.33,1600.67,2763,1600Zm-2633,3c0.667,0.33,1.333.67,2,1C131.333,1603.67,130.667,1603.33,130,1603Zm158,22c0.333,0.67.667,1.33,1,2C288.667,1626.33,288.333,1625.67,288,1625Zm2475,3c0.67,0.33,1.33.67,2,1C2764.33,1628.67,2763.67,1628.33,2763,1628ZM179,1654c-0.667.33-1.333,0.67-2,1,0.667,0.67,1.333,1.33,2,2l1-3h-1Zm2561,0h0Zm18,0c0.33,0.67.67,1.33,1,2,0.33-.67.67-1.33,1-2h-2Zm-302,7h0Zm-179,5c-0.33.67-.67,1.33-1,2l2-2h-1Zm32,0c0.67,0.33,1.33.67,2,1C2310.33,1666.67,2309.67,1666.33,2309,1666ZM199,1678c-0.333.67-.667,1.33-1,2h4C201,1679.33,200,1678.67,199,1678Zm101,31h2C300.255,1709.98,301.78,1709.91,300,1709Zm-79,1c0.667,0.33,1.333.67,2,1C222.333,1710.67,221.667,1710.33,221,1710Zm2349,1h0Zm-2346,3v0Zm2123,1c0.33,0.67.67,1.33,1,2C2347.67,1716.33,2347.33,1715.67,2347,1715Zm-1984,5v0Zm-64,23v3l1-3h-1Zm72,4,1,3h-1v-3Zm-109,8c0.667,0.67,1.333,1.33,2,2C262.608,1755.08,263.9,1756.4,262,1755Zm766,10c0.67,0.33,1.33.67,2,1C1029.33,1765.67,1028.67,1765.33,1028,1765Zm-659,1c-0.333.67-.667,1.33-1,2C369.792,1766.66,369.519,1768.18,369,1766Zm161,2c0.667,0.33,1.333.67,2,1C531.333,1768.67,530.667,1768.33,530,1768Zm-237,1c0.333,0.67.667,1.33,1,2C293.667,1770.33,293.333,1769.67,293,1769Zm-9,4h2C284.255,1773.98,285.78,1773.91,284,1773Zm96,10c1,0.33,2,.67,3,1C382,1783.67,381,1783.33,380,1783Zm433,0c0.667,0.33,1.333.67,2,1C814.333,1783.67,813.667,1783.33,813,1783Zm-59,8h2C754.255,1791.98,755.78,1791.91,754,1791Zm-291,42c0.667,0.33,1.333.67,2,1C464.333,1833.67,463.667,1833.33,463,1833Zm32,0c0.333,0.67.667,1.33,1,2C495.667,1834.33,495.333,1833.67,495,1833Zm-48,6v0Z"/>

</svg>
